<?xml version="1.0" encoding="UTF-8"?>
<svg version="1.1" xmlns="http://www.w3.org/2000/svg" width="500" height="500">
<path d="M0 0 C9.9 0 19.8 0 30 0 C32.47228552 6.31292844 34.94432659 12.62595155 37.41577148 18.93920898 C38.25449959 21.08151604 39.09336374 23.22376985 39.93237305 25.3659668 C48.87374894 48.19603138 48.87374894 48.19603138 53 59 C57.08481881 59 58.84704653 57.29880669 62.1875 55 C63.27417969 54.2575 64.36085938 53.515 65.48046875 52.75 C66.31191406 52.1725 67.14335937 51.595 68 51 C65.16081613 42.61942655 62.14766235 34.31669696 58.9296875 26.07421875 C58.52453918 25.03553902 58.52453918 25.03553902 58.11120605 23.97587585 C56.73659724 20.45660579 55.35437897 16.94050584 53.96386719 13.42749023 C53.44714638 12.11056111 52.93053989 10.79358711 52.4140625 9.4765625 C51.9495166 8.30174316 51.4849707 7.12692383 51.00634766 5.91650391 C50 3 50 3 50 0 C59.57 0 69.14 0 79 0 C80.71347366 4.64320765 82.42395909 9.28729567 84.12695312 13.93432617 C84.70724713 15.51504314 85.28926866 17.09512703 85.87304688 18.67456055 C86.71157911 20.94415928 87.54388408 23.21595792 88.375 25.48828125 C88.63748535 26.19463211 88.8999707 26.90098297 89.17041016 27.6287384 C90.23695003 30.56071715 91 32.85349781 91 36 C105.60438531 26.53324789 105.60438531 26.53324789 120.11547852 16.92480469 C121.29377487 16.13807484 122.47797273 15.3601165 123.66772461 14.59082031 C126.83501125 12.53097958 129.78048804 10.38008484 132.671875 7.9453125 C145.61355062 -2.38950041 159.17864246 -1.15443113 175 0 C174.36015925 5.51165959 172.51433573 10.25597804 170.484375 15.37109375 C170.12089462 16.30136887 169.75741425 17.23164398 169.38291931 18.19010925 C168.59208814 20.21268759 167.79868673 22.23426241 167.00302124 24.25494385 C164.84569007 29.73436221 162.70716895 35.22112343 160.56640625 40.70703125 C160.11630692 41.85903015 159.66620758 43.01102905 159.20246887 44.19793701 C153.49731418 58.81765899 147.92294868 73.48716395 142.34484863 88.1557312 C128.53668626 124.46331374 128.53668626 124.46331374 127 126 C124.85441173 126.08775605 122.70595579 126.10695219 120.55859375 126.09765625 C119.25341797 126.09443359 117.94824219 126.09121094 116.60351562 126.08789062 C115.2148431 126.07953401 113.82617123 126.07106905 112.4375 126.0625 C111.04492344 126.05748666 109.65234519 126.05292347 108.25976562 126.04882812 C104.8398013 126.03699434 101.41992156 126.0205088 98 126 C93.37369218 115.16102202 89.13773711 104.17298918 84.875 93.1875 C83.79898458 90.41532288 82.72251577 87.64332639 81.64456177 84.87190247 C80.97892171 83.16050658 80.31436302 81.44868954 79.65109253 79.7363739 C79.34712555 78.95478409 79.04315857 78.17319427 78.72998047 77.36791992 C78.46748505 76.69129807 78.20498962 76.01467621 77.93453979 75.31755066 C76.67369047 72.1907901 75.32806155 69.09881028 74 66 C67.07 70.455 67.07 70.455 60 75 C61.88965565 81.55145672 64.01095082 87.86871061 66.57421875 94.18359375 C67.2480686 95.86913194 67.9218961 97.55467907 68.59570312 99.24023438 C69.64774213 101.85661609 70.70152682 104.47228665 71.75610352 107.08764648 C72.7830498 109.63878478 73.80386408 112.1923135 74.82421875 114.74609375 C75.14291428 115.53044296 75.4616098 116.31479218 75.78996277 117.12290955 C78 122.66104068 78 122.66104068 78 126 C68.43 126 58.86 126 49 126 C46.07535579 118.68838947 43.32463869 111.42830942 40.75 104 C40.38648438 102.96488281 40.02296875 101.92976563 39.6484375 100.86328125 C39.30554688 99.87714844 38.96265625 98.89101563 38.609375 97.875 C38.29967773 96.98554688 37.98998047 96.09609375 37.67089844 95.1796875 C37 93 37 93 37 91 C29.47687837 95.14316843 22.32024467 99.72650192 15.1875 104.5 C14.28749268 105.08998779 13.38748535 105.67997559 12.46020508 106.2878418 C7.66566688 109.44912645 3.04998301 112.70627921 -1.44921875 116.27734375 C-16.33074419 127.65895975 -27.65679422 128.64971468 -45.70288086 126.32983398 C-46.46093018 126.22098877 -47.21897949 126.11214355 -48 126 C-44.00612854 114.43652335 -39.74888936 102.99611803 -35.30975342 91.59661865 C-33.44846243 86.81652153 -31.59584884 82.03305979 -29.7421875 77.25 C-29.35668732 76.25588104 -28.97118713 75.26176208 -28.57400513 74.23751831 C-23.76091846 61.81751247 -19.00591664 49.37526126 -14.25061035 36.93304443 C-9.5394866 24.60650365 -4.7944416 12.29440798 0 0 Z M138 23 C137.21882813 23.52464844 136.43765625 24.04929688 135.6328125 24.58984375 C122.82627995 33.16800109 109.90925665 41.57766712 97 50 C98.21900318 56.08703142 99.8442374 61.85400884 101.96875 67.68359375 C102.24972534 68.46517349 102.53070068 69.24675323 102.82019043 70.05201721 C103.4091472 71.68564433 104.00085061 73.31828368 104.59521484 74.94995117 C105.50549579 77.45260971 106.40362611 79.95940716 107.30078125 82.46679688 C107.87688611 84.06015564 108.45368401 85.65326404 109.03125 87.24609375 C109.29901245 87.99499374 109.5667749 88.74389374 109.84265137 89.51548767 C111.32881727 93.61328173 111.32881727 93.61328173 114 97 C114.1952124 96.43719833 114.3904248 95.87439667 114.59155273 95.29454041 C116.66882727 89.3057757 118.74624239 83.31705977 120.82373047 77.32836914 C121.59362153 75.10897999 122.3634796 72.8895794 123.13330078 70.67016602 C123.88127524 68.51375077 124.62940387 66.35738899 125.37768555 64.20108032 C126.12620325 62.04270095 126.8737612 59.8839885 127.62036133 57.72494507 C129.51659645 52.24654846 131.43175643 46.77603025 133.3828125 41.31689453 C133.75986328 40.25475235 134.13691406 39.19261017 134.52539062 38.09828186 C135.24445737 36.07477911 135.96947899 34.05338006 136.70117188 32.03440857 C137.01892578 31.13690384 137.33667969 30.23939911 137.6640625 29.31469727 C137.94717285 28.52668228 138.2302832 27.7386673 138.52197266 26.92677307 C139.23770688 24.93422199 139.23770688 24.93422199 138 23 Z M14 28 C13.77529022 28.65129379 13.55058044 29.30258759 13.31906128 29.97361755 C11.17296823 36.19345786 9.02628937 42.41309564 6.8789959 48.63252163 C5.77579245 51.82790594 4.67279458 55.02336086 3.5703125 58.21899414 C2.71503577 60.6978388 1.85942781 63.17656921 1.003479 65.65518188 C0.16630872 68.08009939 -0.6698415 70.50536931 -1.50494385 72.93099976 C-3.29687321 78.12577623 -5.10070904 83.31332377 -6.99121094 88.47314453 C-7.28091766 89.26874283 -7.57062439 90.06434113 -7.86911011 90.88404846 C-8.3904285 92.30771814 -8.91923301 93.72868067 -9.45730591 95.14610291 C-10.8854928 99.00452027 -10.8854928 99.00452027 -10 103 C-2.38833379 98.18373045 5.17971598 93.30295154 12.71850586 88.37353516 C14.45916987 87.23583656 16.20124422 86.10031867 17.94335938 84.96484375 C19.06519004 84.23190225 20.18693796 83.49883408 21.30859375 82.765625 C22.30689209 82.11368164 23.30519043 81.46173828 24.33374023 80.79003906 C26.61558534 79.25808335 28.82210143 77.67505785 31 76 C28.49411755 65.6961019 24.86179904 55.78970858 21.3125 45.8125 C20.69950936 44.08020563 20.08687628 42.34778468 19.47460938 40.61523438 C17.98719046 36.40868595 16.49494612 32.20387895 15 28 C14.67 28 14.34 28 14 28 Z " fill="#F4F4F4" transform="translate(198,181)"/>
</svg>
